<svg width="34" height="28" viewBox="0 0 34 28" fill="none" xmlns="http://www.w3.org/2000/svg">
<path d="M30.5013 0.957275H4.08087C2.26447 0.957275 0.77832 2.44342 0.77832 4.25983V24.0751C0.77832 25.8916 2.26447 27.3777 4.08087 27.3777H30.5013C32.3177 27.3777 33.8039 25.8916 33.8039 24.0751V4.25983C33.8039 2.44342 32.3177 0.957275 30.5013 0.957275ZM29.8408 7.9752L19.0414 14.7289C17.9681 15.4059 16.6141 15.4059 15.5407 14.7289L4.74138 7.9752C4.32857 7.711 4.08087 7.26515 4.08087 6.78628C4.08087 5.67993 5.28631 5.01942 6.22753 5.59736L17.2911 12.5162L28.3546 5.59736C29.2959 5.01942 30.5013 5.67993 30.5013 6.78628C30.5013 7.26515 30.2536 7.711 29.8408 7.9752Z" fill="white"/>
</svg>
